<svg id="Group_67" data-name="Group 67" xmlns="http://www.w3.org/2000/svg" xmlns:xlink="http://www.w3.org/1999/xlink" width="46.472" height="114.599" viewBox="0 0 46.472 114.599">
  <defs>
    <linearGradient id="linear-gradient" x1="0.5" x2="0.5" y2="1" gradientUnits="objectBoundingBox">
      <stop offset="0" stop-color="#00aeef"/>
      <stop offset="0.017" stop-color="#06bef2"/>
      <stop offset="1" stop-color="#12e1f8"/>
    </linearGradient>
  </defs>
  <path id="Path_15" data-name="Path 15" d="M29.019,23.893h5.393a9.732,9.732,0,0,0-2.7-7.392,9.732,9.732,0,0,0-2.7,7.392Z" transform="translate(-8.48 10.427)" fill="url(#linear-gradient)"/>
  <path id="Path_16" data-name="Path 16" d="M31.43,38.075c-.355-4.543,1.916-8.971,6.185-12.058a3.231,3.231,0,0,1,3.808,0c4.269,3.087,6.541,7.515,6.185,12.058H53.7c5.759-14.97-1.11-22.482-14.043-34.32-.292,6.382-3.546,12.462-9.151,17.1-4.428,4.2-7.957,7.581-5.056,17.222Z" transform="translate(-16.284 -3.754)" fill="url(#linear-gradient)"/>
  <path id="Path_17" data-name="Path 17" d="M67.617,95.212c-1.1-2.177-3.831-3.576-6.819-3.5H50.012a2.459,2.459,0,0,1-2.7-2.113V83.265a2.176,2.176,0,1,0,0-4.225V74.815a2.176,2.176,0,1,0,0-4.225V64.252a2.469,2.469,0,0,1,2.706-2.113,16.086,16.086,0,0,0,10.535-2.951c5.622-4.679,4.87-14.434,4.208-23.041a48.685,48.685,0,0,1-.046-11.821,1.7,1.7,0,0,0-.558-1.614A2.868,2.868,0,0,0,62.229,22H27.008a2.868,2.868,0,0,0-1.931.712,1.7,1.7,0,0,0-.557,1.614,48.685,48.685,0,0,1-.046,11.821c-.662,8.606-1.414,18.361,4.208,23.041a16.087,16.087,0,0,0,10.535,2.951,2.469,2.469,0,0,1,2.706,2.113V70.59a2.176,2.176,0,1,0,0,4.225V79.04a2.176,2.176,0,1,0,0,4.225V89.6a2.459,2.459,0,0,1-2.7,2.113H28.44c-2.988-.08-5.717,1.319-6.819,3.5a1.632,1.632,0,0,0,.16,1.915,2.777,2.777,0,0,0,2.145.927H65.312a2.777,2.777,0,0,0,2.145-.927A1.632,1.632,0,0,0,67.617,95.212Z" transform="translate(-21.383 16.545)" fill="url(#linear-gradient)"/>
</svg>
