<svg xmlns="http://www.w3.org/2000/svg" xmlns:xlink="http://www.w3.org/1999/xlink" width="111.064" height="92.428" viewBox="0 0 111.064 92.428">
  <defs>
    <linearGradient id="linear-gradient" x1="0.5" x2="0.5" y2="1" gradientUnits="objectBoundingBox">
      <stop offset="0" stop-color="#00aeef"/>
      <stop offset="1" stop-color="#12e1f8"/>
    </linearGradient>
  </defs>
  <g id="Group_65" data-name="Group 65" transform="translate(0 0)">
    <path id="Path_11" data-name="Path 11" d="M49.731,10.138a42.248,42.248,0,1,0,41.86,42.247A42.055,42.055,0,0,0,49.731,10.138Zm0,79.822A37.576,37.576,0,1,1,86.963,52.387,37.406,37.406,0,0,1,49.731,89.96Z" transform="translate(5.801 -2.201)" fill="url(#linear-gradient)"/>
    <path id="Path_12" data-name="Path 12" d="M33.891,10.408c1.915-.891,1.645-2.271,1.36-2.95l-.208-.408A2.39,2.39,0,0,0,32.01,5.738,53.532,53.532,0,0,0-.01,53.483c.1,1.457.864,1.81,1.383,1.872H2.617c.578-.109,1.374-.587,1.523-2.334a2.741,2.741,0,0,1,.054-.366A49.376,49.376,0,0,1,33.658,10.532C33.747,10.488,33.792,10.455,33.891,10.408Z" transform="translate(0.01 -5.605)" fill="url(#linear-gradient)"/>
    <path id="Path_13" data-name="Path 13" d="M47.605,5.968c-2.141-.86-3.128.144-3.47.709l-.455.891c-.231.594-.4,1.9,1.856,2.989.05.026.085.049.132.074A49.392,49.392,0,0,1,74.853,52.89a.2.2,0,0,0,.035-.014s-.082,2.495,1.962,2.495h.559a1.787,1.787,0,0,0,1.632-1.928A53.534,53.534,0,0,0,47.605,5.968Z" transform="translate(32.023 -5.583)" fill="url(#linear-gradient)"/>
    <path id="Path_14" data-name="Path 14" d="M60.405,39.074a36.821,36.821,0,0,0-5.628-6.168.846.846,0,0,0-1.057-.179.745.745,0,0,0-.387.833l-.031-.019a15.471,15.471,0,0,1,1.782,7.123C55.1,42.255,55,43.369,55,43.39c-.04.243-.085.457-.128.648-.132.648-1.006,2.558-2.247,2.033s-1.315-2.53-1.315-2.53a.051.051,0,0,1-.017.005C50.34,32.4,45.248,25.8,41.343,22.334l-.012-.012-.012-.011a23.653,23.653,0,0,0-3.756-2.742,3.181,3.181,0,0,1-.309-.173,3.6,3.6,0,0,0-.52-.268.006.006,0,0,1,0,.005c-.111-.058-.226-.1-.34-.158a.94.94,0,0,0-1.289.527,5.617,5.617,0,0,0,.42,2.563s0,0,0,0c1.58,4.325,3.506,11.978,1.487,20.181A3.4,3.4,0,0,1,34.9,44.62a2.822,2.822,0,0,1-2.939-1.9c-.057-.161-.128-.312-.179-.487a.258.258,0,0,0-.007-.03c-1.07-3.854.241-9.619,1.159-12.836.616-2.379-2.278,0-2.278,0l-.01.007h0c-.569.483-1.181,1.031-1.827,1.637l0-.023c-.815.753-1.893,1.8-3,2.994-.6.648-8.594,9.527-6.1,21.651a22.2,22.2,0,0,0,43.649-2.525c.054-.446.1-.889.125-1.331.01-.14.014-.284.021-.431A23.3,23.3,0,0,0,60.405,39.074Z" transform="translate(14.15 4.379)" fill="url(#linear-gradient)"/>
  </g>
</svg>
