<svg id="Group_66" data-name="Group 66" xmlns="http://www.w3.org/2000/svg" xmlns:xlink="http://www.w3.org/1999/xlink" width="37.643" height="114.599" viewBox="0 0 37.643 114.599">
  <defs>
    <linearGradient id="linear-gradient" x1="0.5" x2="0.5" y2="1" gradientUnits="objectBoundingBox">
      <stop offset="0" stop-color="#00aeef"/>
      <stop offset="0.445" stop-color="#08c5f3"/>
      <stop offset="1" stop-color="#12e1f8"/>
    </linearGradient>
  </defs>
  <path id="Path_20" data-name="Path 20" d="M48.694,110.764H56.9a1.913,1.913,0,0,0,2.053-1.731V50.163a7.323,7.323,0,0,0,3.106-5.771v-10.1c0-4.3-4.135-7.792-9.236-7.792s-9.236,3.488-9.236,7.792v10.1A7.323,7.323,0,0,0,46.7,50.163v58.869a1.9,1.9,0,0,0,2,1.731ZM47.64,34.292c0-2.391,2.3-4.329,5.131-4.329S57.9,31.9,57.9,34.292v10.1c0,2.391-2.3,4.329-5.131,4.329s-5.131-1.938-5.131-4.329ZM50.746,107.3V51.987a10.551,10.551,0,0,0,4.1,0V107.3Z" transform="translate(-33.943 3.835)" fill="url(#linear-gradient)"/>
  <path id="Path_21" data-name="Path 21" d="M43.272,44.776a1.559,1.559,0,0,0,.383-2.424,11.128,11.128,0,0,1-3.01-7.5c0-6.926,4.529-12.5,8.922-17.857a56.768,56.768,0,0,0,5.8-7.965,56.769,56.769,0,0,0,5.8,7.965c4.379,5.356,8.908,10.908,8.908,17.857a11.108,11.108,0,0,1-3.01,7.5,1.56,1.56,0,0,0,.4,2.424,2.331,2.331,0,0,0,2.873-.335,14.2,14.2,0,0,0,3.845-9.592c0-8.08-5.118-14.29-9.578-19.819-3.722-4.49-7.184-8.726-7.184-13.078a2.082,2.082,0,0,0-4.1,0c0,4.352-3.462,8.588-7.129,13.078-4.515,5.529-9.647,11.785-9.647,19.819a14.266,14.266,0,0,0,3.845,9.592,2.33,2.33,0,0,0,2.887.335Z" transform="translate(-36.54 -0.22)" fill="url(#linear-gradient)"/>
</svg>
